<?xml version="1.0" encoding="utf-8"?>
<!-- Generator: Adobe Illustrator 21.1.0, SVG Export Plug-In . SVG Version: 6.00 Build 0)  -->
<svg version="1.1" id="レイヤー_1" xmlns="http://www.w3.org/2000/svg" xmlns:xlink="http://www.w3.org/1999/xlink" x="0px"
	 y="0px" viewBox="0 0 100 67" style="enable-background:new 0 0 100 67;" xml:space="preserve">
<g>
	<g>
		<path d="M34.3,21.3c1,0,1.8-0.3,2.7-0.9v-1.9h0c-0.7,0.9-1.5,1.4-2.7,1.4c-1.8,0-2.9-1.4-2.9-3.1c0-1.7,1.2-3.1,3-3.1
			c1.1,0,1.9,0.6,2.6,1.4h0v-1.9c-0.7-0.5-1.7-0.8-2.6-0.8c-2.5,0-4.5,1.9-4.5,4.4C29.9,19.4,31.8,21.3,34.3,21.3z M42.1,21.3
			c1.2,0,2.2-0.5,2.9-1.4h0v1.2h1.4v-8.4h-1.4v1.2h0c-0.7-0.9-1.7-1.4-2.9-1.4c-2.5,0-4,2-4,4.4C38.1,19.2,39.7,21.3,42.1,21.3z
			 M42.3,13.8c1.8,0,2.8,1.4,2.8,3c0,1.7-1,3.2-2.8,3.2c-1.8,0-2.8-1.5-2.8-3.2C39.6,15.3,40.7,13.8,42.3,13.8z M49.3,21.1h1.4V14
			h2.1v-1.3h-2.1V9.9c0-1.5,0-2.3,1.2-2.3c0.4,0,0.6,0.1,1,0.2V6.4c-0.3-0.1-0.7-0.2-1-0.2c-0.9,0-1.7,0.3-2.2,1.1
			c-0.4,0.6-0.4,1.5-0.4,2.2v3.3h-0.8V14h0.8V21.1z M59.2,8.5l-1.5-0.7l-2.1,2.9l0.9,0.5L59.2,8.5z M57.4,21.3
			c1.7,0,3.1-0.9,3.9-2.4l-1.2-0.7c-0.6,1-1.3,1.7-2.6,1.7c-1.6,0-2.7-1.2-2.8-2.8h6.6c0.1-2.5-1.3-4.7-4-4.7c-2.6,0-4.1,2-4.1,4.5
			C53.3,19.4,54.9,21.3,57.4,21.3z M57.4,13.8c1.3,0,2.3,1,2.5,2.2h-5C55,14.8,56.2,13.8,57.4,13.8z M47.2,58.3l-1.1-2.6l-1.1,2.6
			L44,55.9h-0.8l1.9,3.8l1.1-2.5l1.1,2.5l1.9-3.8h-0.8L47.2,58.3z M50,53.7c-0.3,0-0.5,0.2-0.5,0.5c0,0.3,0.2,0.5,0.5,0.5
			c0.3,0,0.5-0.2,0.5-0.5C50.5,54,50.3,53.7,50,53.7z M49.7,59.6h0.7v-3.7h-0.7V59.6z M52.3,54.5h-0.7v1.4h-0.4v0.7h0.4v3h0.7v-3H53
			v-0.7h-0.7V54.5z M55.4,55.8c-0.5,0-0.9,0.2-1.1,0.6h0v-3.7h-0.7v6.9h0.7v-1.7c0-0.7,0-1.5,0.9-1.5c0.7,0,0.8,0.4,0.8,1.1v2.1h0.7
			v-2.2C56.7,56.5,56.4,55.8,55.4,55.8z M21.9,21.5c0.4-0.4,0.6-0.7,1.2-1.2c0.7-0.6,1.6-1.4,2.7-2.1c0.6-0.4,0.9-0.9,0.6-1.6
			c-0.2-0.5-0.9-0.7-1.5-0.3C24,16.7,21.2,19,20,20c-0.5,0.4-0.5,0.4-0.6,0.5c-0.1,0-0.3,0-0.9-0.1c-1.6-0.3-3.3-0.2-4.7,0.3
			c-1.4,0.5-2.3,1-3.5,2.3c-1.5,1.6-2.1,3.7-1.6,6c0.4,1.9,1.8,3.1,3.7,4.7c2.1,1.7,4,3.3,4.7,4.1c0.7,0.9,0.9,2.2,0.9,3
			c0,1.5-0.5,2.7-1.6,3.9c-1,1.2-2.5,2-4.2,2.3c-2.8,0.6-5.5,0.3-8-1.4c-0.4-0.3-0.7-0.5-1-0.8c-0.5-0.5-0.9-1-0.9-1.1
			c-0.3-0.6-0.2-0.9-0.2-1.1c0.1-0.3,0.2-0.5,0.5-0.7c0.3-0.3,0.6-0.4,1.1-0.4c0.2,0,0.4,0,0.6-0.1c0.3-0.1,0.6-0.4,0.6-0.8
			c0-0.7-0.6-1.2-1.3-1.3c-2-0.1-3.5,1.3-3.5,3.5c0,0.7,0.2,1.4,0.4,1.8c0.3,0.7,0.8,1.4,1.8,2.2c0.6,0.5,1.3,0.9,2.1,1.3
			c1.2,0.6,2.7,1,4.2,1.1c0.7,0.1,1.6,0.1,2.1,0c1.2-0.1,2.3-0.3,3.5-0.7c1.4-0.5,2.7-1.3,3.8-2.5c1.2-1.4,2-2.9,2.1-5
			c0.1-1.7-0.4-3.8-1.9-5.3c-1.5-1.6-4.8-3.8-6.4-5.6c-1.6-1.6-1.5-3.6-0.4-5.3c1.2-1.7,2.8-2.8,5.4-2.7c0.3,0,0.9,0.1,1.1,0.2
			c0,0,0.1,0.1,0.1,0.2c-0.1,0.2-0.3,0.5-0.4,0.7c-0.7,1.1-1.2,2.8-1.1,4c0.1,1,0.6,1.6,1.2,2c0.6,0.4,1.6,0.5,2.4,0.3
			c0.8-0.1,1.5-0.5,2.1-1.1c0.9-0.9,1.3-2.3,1.2-3.4c-0.1-1.2-0.4-2.3-1.4-3.2C21.8,21.7,21.8,21.7,21.9,21.5z M21.2,26
			c-0.1,0.8-0.7,1.5-1.4,1.7c-0.8,0.2-1.5-0.2-1.3-1.1c0.1-0.5,0.3-0.9,0.4-1.2c0.2-0.4,0.3-0.7,0.5-0.9c0.2-0.3,0.4-0.6,0.7-0.9
			C20.9,24.2,21.4,24.9,21.2,26z M35.2,26.9c1.1,0,7.7,0,9.4,0c3.7,0,26.8-0.1,32-0.1c5.2,0,10.5,0,12,0c1.2,0,2.3,0,2.7,0
			c0.2,0,0.9,0,1.3-0.1c0.5-0.1,0.9-0.3,0.9-0.8c0-0.5-0.4-0.7-0.8-0.8c-0.4-0.1-0.9-0.1-1.3-0.1h-1.5c-0.9,0-10.3,0.1-11.6,0.1
			c-3.6,0-41,0.1-42.9,0.1c-2.3,0-9,0-9.9,0c-1,0-1.3,0.2-1.3,0.8c0,0.7,0.4,1,1.3,1h6.1c0.6,0,0.7,0.1,0.4,0.7
			c-0.7,1.6-7,16.1-8,18.8c-0.2,0.5-0.3,1.2-0.1,1.6c0.1,0.2,0.4,0.4,0.9,0.4c0.5-0.1,0.9-0.3,1.3-1.2c1.1-2.6,7.2-17.1,8-19.1
			C34.4,27.2,34.4,26.9,35.2,26.9z M98.8,26.8c-0.4,0.1-0.7,0.4-1,0.7c-0.8,0.9-1.4,1.9-2.2,2.7c-2.3,2.5-4.9,4.7-8.1,6
			c-0.5,0.2-0.9,0.3-1.2,0.4c-0.2,0-0.3,0.1-0.5-0.1c-0.2-0.2-0.4-0.8-0.7-1.3c-0.9-1.5-1.8-2-3-2.3c-0.4-0.1-0.6-0.1-0.9-0.1
			c-0.9,0-1.6,0.1-2.8,1c-0.4,0.3-0.6,0.6-1,0.8c-0.3,0.1-0.5,0.1-0.8,0.5c-0.6,0.8-1.1,1.4-1.7,2.2c-1.4,1.8-2.2,3.5-2.3,5.7
			c0,0.9,0.1,1.3,0.1,1.7c0.2,0.7,0.6,1.6,0.8,1.9c1.3,2,3.6,2.8,5.8,2.5c3.2-0.4,5-2.4,6.2-5.2c0.7-1.6,0.7-3.2,0.7-4.9
			c0-0.3,0-0.6,0.4-0.6c0.4-0.1,0.6-0.2,0.9-0.3c2.4-0.7,4.5-2,6.4-3.6c1.3-1.1,2.6-2.3,3.8-3.6c0.7-0.8,1.4-1.7,1.9-2.6
			C100.3,27.6,99.7,26.7,98.8,26.8z M80.3,35.2c0.2-0.2,0.4-0.4,1.1-0.4c1,0,1.4,0.8,1.9,1.6c0.2,0.3,0.1,0.4,0,0.4
			c-1,0.2-1.9,0.1-2.6-0.4c-0.2-0.1-0.3-0.3-0.4-0.5C80.2,35.7,80.1,35.4,80.3,35.2z M81,46.8c-1.7,1.1-4.2,0.8-5.4-0.7
			c-0.3-0.4-0.6-0.9-0.8-1.4c-0.5-1.1-0.2-2.8,0.2-3.8c0.6-1.5,1.8-3,2.8-3.9c0.2-0.2,0.6-0.3,0.8,0c1.1,1.3,2.1,1.7,3.9,1.7
			c0.6,0,1,0,1.3-0.1c0.4,0,0.8-0.2,0.8,1C84.4,43,83.4,45.3,81,46.8z M49.8,45c-0.2,0.5-0.4,0.6-0.9,0.5c-0.2,0-0.8-0.1-1-0.1
			c-0.6-0.1-0.9,0.3-1,0.9c-0.1,0.9,0.1,1.2,0.7,1.3c0.9,0.2,1.6,0.3,3,0.4c1.9,0.1,3.7,0.1,5.5-0.4c1.8-0.5,3.4-1.2,4.7-2.4
			c1.8-1.6,2.7-3.6,3-5.5c0.2-1.5,0.1-3.1-0.7-4.4c-0.4-0.7-1.2-1.3-1.8-1.6c-1-0.5-1.8-0.7-3.3-0.7c-1.5,0-2.7,0-4.2,0.1
			c-0.4,0-0.8,0.1-1,0.2c-0.6,0.2-0.5,0.8-0.5,1.2c0,0.4,0.4,0.5,0.8,0.5c0.4,0,0.8,0,1.1-0.1c0.1,0,0.1,0.1,0,0.2
			C51.7,40.6,51.3,41.7,49.8,45z M56.1,35c0.1-0.3,0.1-0.3,0.4-0.3c0.3,0,0.9,0,1.3,0c0.8,0.1,1.8,0.3,2.7,1c1.2,1,1.6,2.6,1,4.2
			c-0.5,1.7-1.5,3-2.7,4c-0.7,0.6-1.5,0.9-1.9,1.1c-0.5,0.2-1.4,0.5-2.5,0.6c-1,0.1-2.1,0.1-2.2,0c-0.3-0.1-0.5,0-0.4-0.3
			c0-0.1,0.2-0.5,0.3-0.7C53,42.8,55.9,35.7,56.1,35z M46.5,38.6c0.3-0.7,1.2-2.9,1.6-4.1c0.2-0.6,0-1.2-0.6-1.4
			c-0.7-0.2-1.1,0.1-1.4,1c-1,2.3-2.7,6.7-3.5,8.3c-1,2.1-2.1,3.3-2.9,3.6c-1.2,0.5-2.3,0.2-2.8-0.3c-0.9-0.7-1.1-2-1-3.3
			c0.1-1.3,0.4-2.8,2.2-7c0.4-0.8,0.6-1.5,0.6-1.9c0-0.4-0.2-0.8-0.6-0.9c-0.5-0.1-1,0.2-1.3,0.6c-0.4,0.8-0.8,1.9-1.3,3.1
			c-1,2.5-1.4,4.2-1.5,5.8c-0.1,1.2-0.1,2.4,0.3,3.5c0.5,1.3,1.3,1.8,2.1,2.3c1,0.6,3.5,0.9,5.2-0.7c1.4-1.2,2.1-2.4,3.1-4.6
			C45.3,41.3,46.3,39.1,46.5,38.6z M69.4,35.2c-0.3,0.8-4,9.8-4.2,10.2c-0.1,0.4-0.3,0.9-0.5,1.3c-0.1,0.4,0,1,0.4,1.3
			c0.3,0.2,0.7,0.2,1,0.1c0.3-0.1,0.6-0.5,0.8-1c0.1-0.2,0.3-0.7,0.4-1c0.2-0.5,3.2-7.9,3.4-8.4c0.2-0.5,0.5-1.2,0.7-1.7
			c0.4-1-0.1-1.6-0.8-1.7C70,34.2,69.6,34.7,69.4,35.2z M63.8,5.5c0.2,1,0.4,2.8,0.5,3.4c0.4,3.5,0.3,6.5,0.3,7.5c0,1.2,0,2.2,0,3.1
			c0,1,0.4,1.8,0.9,2.2c0.4,0.4,0.7,0.5,1.5,0.7c1.1,0.3,3,0.4,4.2,0.5c1.5,0.1,3.8,0.1,5.7,0c0.7,0,1.8-0.1,2.5-0.2
			c2.1-0.3,2.6-0.8,2.8-1.3c0.3-0.5,0.5-1,0.5-1.6c0-0.4,0.2-0.4,0.5-0.5c0.3-0.1,0.5-0.3,0.7-0.6c0.1-0.3,0.4-0.6,0.6-0.8
			c0.4-0.5,2.1-1.9,2.9-2.8c0.9-0.8,1.6-1.6,2.3-2.6c0.4-0.5,0.7-1,1-1.7C92,8,91.2,5.9,90.7,5.1c-0.4-0.6-0.9-1.2-1.6-1.7
			c-0.9-0.5-2.1-0.6-3.1-0.6c-0.6,0-1.1,0.2-1.7,0.3c0.1-0.5,0.2-1.1,0.3-1.6c0.1-0.6-0.2-1.2-0.8-1.3c-0.6-0.1-2.8-0.1-9.9-0.1
			c-7.2,0-8.9,0-9.5,0.2c-0.4,0.1-0.8,0.3-1,0.9c-0.1,0.4,0,1.2,0.1,1.7C63.5,3.9,63.7,4.8,63.8,5.5z M83.6,5.7
			c0.1-0.5,0.4-0.7,0.5-0.8c0.4-0.3,0.8-0.5,1.1-0.6c0.4-0.2,1-0.3,1.6-0.2c0.8,0,1.2,0.2,1.7,0.5c0.9,0.4,1.4,1.5,1.6,2
			c0.3,0.7,0.2,1.6-0.1,2.8c-0.3,1.3-1.3,2.5-1.6,2.9c-0.3,0.4-2.8,2.8-3.1,3.1c-0.2,0.2-1.3,1.2-2.1,1.9c-0.1,0.1-0.2-0.2-0.2-0.4
			c0.3-0.7,0.8-1.3,1.2-1.7c0.5-0.5,1.1-1.1,1.8-1.7c0.4-0.4,1.6-1.5,2.1-2.2c0.6-0.9,1-1.7,1.3-2.9c0.1-0.6,0.1-1.1-0.1-1.8
			c-0.2-0.6-0.7-1.2-1-1.5c-0.1,0-0.5-0.3-0.9-0.4c-0.4-0.1-1-0.1-1.4,0c-0.6,0.2-1.3,0.4-1.8,1.2c-0.1,0.1-0.2,0.3-0.4,0.5
			c-0.1,0.1-0.2,0-0.2-0.1C83.5,6.2,83.5,5.9,83.6,5.7z M82.9,11.7c0.1-1.4,0.3-2.7,0.4-3.4c0.1-0.3,0.1-0.5,0.5-0.5
			c0.6,0.1,1-0.2,1.3-0.7c0.4-0.6,0.3-0.8,1.3-1.1c0.1,0,0.5,0,0.6,0.1c0.8,0.4,1.1,1.5,0.9,2.5c-0.2,1-0.8,1.8-1.4,2.5
			c-0.8,0.8-1.1,1.1-1.8,1.7c-0.4,0.3-0.9,0.7-1.4,1c-0.3,0.2-0.5,0.4-0.5,0.2C82.9,13.5,82.9,12.6,82.9,11.7z M64.8,1.8
			c0.2-0.3,0.5-0.2,1.1-0.3c0.9,0,15.2,0,16.4,0c0.5,0,0.6,0.3,0.5,0.8c-0.2,1-0.2,1.6-0.3,2.3c-0.1,0.6-0.2,1.7-0.3,2.3
			c-0.2,1.8-0.3,3.1-0.4,4.2c-0.2,2.2-0.3,5.3-0.3,6.8c0,0.4,0,1.3-0.2,2c-0.1,0.5-0.2,0.6-0.4,0.8c-0.2,0.2-0.4,0.3-1.3,0.5
			c-1.1,0.2-1.8,0.3-2.9,0.4c-1.8,0.1-4.2,0.1-5.6,0.1c-1.4-0.1-2.1-0.2-3.1-0.4c-0.8-0.2-1.7-0.6-1.9-1.4c-0.2-0.5-0.1-1.1-0.1-1.6
			c0-0.2,0-3.5,0-4.5c0-1.1-0.1-2.5-0.1-3.6c-0.1-1.2-0.2-2.1-0.4-3.4c-0.2-1.4-0.4-2.6-0.6-3.6c-0.1-0.3-0.1-0.8-0.1-1
			C64.7,2,64.8,1.8,64.8,1.8z M86.1,55.2c-0.8,0-1.5,0.4-2,1c-0.5-0.6-1.2-1-2-1c-0.9,0-1.7,0.5-2.2,1.3c-0.4-0.4-1.1-0.7-1.8-0.7
			c-0.2,0-0.4,0-0.6,0.1c-0.4-0.4-1-0.6-1.6-0.6c-0.6,0-1.1,0.2-1.5,0.5h-2.1v-3.1h0c0-1.8-1.5-3.3-3.4-3.3c-1.9,0-3.4,1.5-3.4,3.4
			v10.6c0,1.3-1.1,2.4-2.5,2.4c-1.4,0-2.5-1.1-2.5-2.4v-3.7c0.4,0.3,0.9,0.5,1.4,0.5c1.4,0,2.5-1.1,2.5-2.5c0-1.4-1.1-2.5-2.5-2.5
			c-0.6,0-1.1,0.2-1.5,0.5h-1v7.7h0c0,1.9,1.6,3.4,3.5,3.4c1.9,0,3.5-1.6,3.5-3.5V52.8c0-1.3,1.1-2.4,2.4-2.4c1.3,0,2.4,1.1,2.4,2.4
			v2.8c-0.4-0.2-0.8-0.3-1.2-0.3c-1.4,0-2.5,1.1-2.5,2.5c0,1.4,1.1,2.5,2.5,2.5c1.4,0,2.5-1.1,2.5-2.5c0-0.3-0.1-0.6-0.2-0.9h1.3
			c-0.1,0.3-0.2,0.6-0.2,0.9c0,1.4,1.1,2.5,2.5,2.5c1.4,0,2.5-1.1,2.5-2.5c0-0.3-0.1-0.6-0.2-0.9c0.8,0,1.4,0.7,1.4,1.4V60h1v-2.3
			c0-0.8,0.6-1.4,1.4-1.4c0.8,0,1.4,0.6,1.4,1.4V60h1v-2.3c0-0.8,0.6-1.4,1.4-1.4c0.8,0,1.4,0.6,1.4,1.4V60h1v-2.3
			C88.5,56.3,87.4,55.2,86.1,55.2z M62.2,56.3c0.8,0,1.4,0.6,1.4,1.4c0,0.8-0.6,1.4-1.4,1.4c-0.8,0-1.4-0.6-1.4-1.4
			C60.7,56.9,61.4,56.3,62.2,56.3z M70.1,59.1c-0.8,0-1.4-0.6-1.4-1.4c0-0.8,0.6-1.4,1.4-1.4c0.8,0,1.4,0.6,1.4,1.4
			C71.6,58.5,70.9,59.1,70.1,59.1z M76,59.1c-0.8,0-1.4-0.6-1.4-1.4c0-0.8,0.6-1.4,1.4-1.4c0.8,0,1.4,0.6,1.4,1.4
			C77.4,58.5,76.8,59.1,76,59.1z M68.7,62.6h2v4.3h0.9v-4.3h2v-0.8h-5V62.6z M74.2,66.8h3.9v-0.7h-3v-1.4h2.7v-0.8h-2.7v-1.4h3v-0.7
			h-3.9V66.8z M81.2,62.5c0.7,0,1.2,0.4,1.6,1l0,0h0.9l0-0.1c-0.4-1-1.3-1.7-2.4-1.7c-1.4,0-2.6,1.2-2.6,2.6c0,1.4,1.2,2.6,2.6,2.6
			c1.1,0,2-0.7,2.4-1.7l0-0.1h-0.9l0,0c-0.3,0.6-0.9,1-1.6,1c-1,0-1.8-0.8-1.8-1.8C79.4,63.3,80.2,62.5,81.2,62.5z M87.7,63.9h-2.6
			v-2.1h-0.8v5h0.8v-2.2h2.6v2.2h0.8v-5h-0.8V63.9z"/>
	</g>
</g>
</svg>
