<?xml version="1.0" encoding="utf-8"?>
<!-- Generator: Adobe Illustrator 21.1.0, SVG Export Plug-In . SVG Version: 6.00 Build 0)  -->
<svg version="1.1" id="レイヤー_1" xmlns="http://www.w3.org/2000/svg" xmlns:xlink="http://www.w3.org/1999/xlink" x="0px"
	 y="0px" viewBox="0 0 185 69" style="enable-background:new 0 0 185 69;" xml:space="preserve">
<g>
	<g>
		<path d="M21.3,45.6L21.3,45.6c-2.1-2.5-4.5-4.2-7.9-4.2c-5.2,0-8.9,4.3-8.9,9.3S7.9,60,13.2,60c3.6,0,6.1-1.6,8.2-4.3h0.1v5.7
			c-2.5,1.7-5,2.6-8,2.6C5.9,64,0.1,58.3,0.1,50.7c0-7.5,6.1-13.3,13.4-13.3c2.7,0,5.5,0.9,7.8,2.5C21.3,39.9,21.3,45.6,21.3,45.6z"
			/>
		<path d="M50,63.2h-4.3v-3.5h-0.1c-2.2,2.8-5.1,4.2-8.7,4.2c-7.4,0-12.1-6.3-12.1-13.2c0-7.2,4.6-13.3,12.1-13.3
			c3.4,0,6.5,1.6,8.6,4.3h0.1v-3.6h4.3L50,63.2L50,63.2z M29.3,50.4c0,4.9,2.9,9.6,8.3,9.6c5.5,0,8.4-4.4,8.4-9.5
			c0-5-3.2-9.1-8.5-9.1C32.5,41.3,29.3,45.7,29.3,50.4z"/>
		<path d="M62.6,63.2h-4.3V42h-2.4v-4h2.4V28c0-2.1,0-4.7,1.1-6.5c1.4-2.2,3.9-3.2,6.5-3.2c1,0,2,0.2,3.1,0.5v4.3
			c-1-0.3-1.8-0.6-2.9-0.6c-3.5,0-3.5,2.5-3.5,6.9v8.5H69v4h-6.4L62.6,63.2L62.6,63.2z"/>
		<path d="M74.9,51.6c0.1,4.7,3.4,8.4,8.3,8.4c3.6,0,6-2.2,7.7-5.2l3.6,2.1C92.1,61.4,88,64,82.9,64c-7.5,0-12.3-5.7-12.3-13
			c0-7.4,4.3-13.6,12.2-13.6c8.1,0,12.4,6.7,11.9,14.2C94.7,51.6,74.9,51.6,74.9,51.6z M90.1,47.9c-0.6-3.6-3.6-6.6-7.4-6.6
			c-3.7,0-7.1,2.9-7.7,6.6H90.1z M88.1,25.4l-8.2,8.2l-2.7-1.5l6.4-8.8L88.1,25.4z"/>
	</g>
	<path d="M182.7,15.2c-1.1-1.8-2.7-3.7-4.9-5c-2.7-1.6-6.4-1.9-9.4-1.9c-1.7,0-3.4,0.6-5,0.9c0.3-1.6,0.6-3.2,0.9-4.9
		c0.3-1.8-0.7-3.5-2.5-3.9C160,0,153.5,0.1,132,0.1S105.3,0,103.5,0.6c-1.2,0.4-2.4,0.9-2.9,2.8c-0.4,1.3,0,3.6,0.2,5
		c0.5,3.3,1,5.9,1.4,8.1c0.5,3.1,1.2,8.4,1.4,10.1c1.2,10.5,0.9,19.4,0.9,22.5c0,3.6-0.1,6.6-0.1,9.5c0,3.1,1.2,5.5,2.6,6.6
		c1.3,1.1,2.2,1.4,4.5,2c3.4,0.9,9.1,1.3,12.6,1.6c4.5,0.3,11.5,0.2,17.1-0.1c2.1-0.1,5.5-0.4,7.6-0.7c6.4-1,7.7-2.5,8.5-3.8
		c1-1.6,1.4-3.1,1.6-4.8c0.1-1.1,0.6-1.2,1.6-1.4c0.8-0.2,1.5-0.9,2-1.7c0.4-0.8,1.2-1.8,1.8-2.5c1.3-1.4,6.2-5.8,8.8-8.3
		s4.7-4.9,6.8-7.7c1.2-1.6,2-3,3-5.1C186.7,23.7,184.3,17.6,182.7,15.2z M157.9,13.7c-0.2,1.7-0.7,5.2-0.9,6.8
		c-0.6,5.3-1,9.2-1.3,12.7c-0.5,6.7-0.9,15.8-0.9,20.4c0,1.1,0,4-0.5,6c-0.4,1.4-0.7,1.9-1.3,2.5s-1.3,0.8-3.8,1.4
		c-3.2,0.7-5.4,1-8.6,1.2c-5.4,0.4-12.7,0.4-16.9,0.2c-4.2-0.3-6.3-0.6-9.3-1.2c-2.3-0.5-5-1.8-5.8-4.3c-0.5-1.5-0.3-3.2-0.3-4.8
		c0-0.5,0-10.4,0-13.7c0-3.3-0.2-7.6-0.4-10.7c-0.3-3.7-0.6-6.4-1.1-10.1c-0.5-4.2-1.2-7.7-1.7-10.8c-0.2-1-0.4-2.4-0.3-3
		c0-0.5,0.2-0.8,0.4-1c0.7-0.8,1.6-0.7,3.2-0.8c2.8,0,45.6,0,49.1,0c1.4,0,1.9,1,1.6,2.5C158.4,10,158.2,11.6,157.9,13.7z
		 M174.6,26.2c-0.6,2.9-2.3,5.5-4.3,7.6c-2.3,2.5-3.3,3.2-5.5,5.1c-1.1,1-2.7,2.1-4.1,3.2c-0.8,0.6-1.4,1.3-1.4,0.6
		c0-2.4-0.1-4.9,0.1-7.7c0.3-4.3,0.9-8,1.3-10.2c0.2-1,0.2-1.6,1.4-1.4c1.7,0.2,3.1-0.5,4-2c1.1-1.9,1-2.6,3.9-3.2
		c0.4-0.1,1.4,0.1,1.8,0.3C174.2,19.8,175.2,23,174.6,26.2z M174.7,33.9c1.9-2.6,3.1-5,3.8-8.6c0.3-1.8,0.3-3.4-0.3-5.4
		c-0.6-1.9-2-3.6-3-4.4c-0.2-0.1-1.5-1-2.7-1.3c-1.3-0.3-3-0.4-4.3,0c-1.9,0.5-3.8,1.4-5.4,3.7c-0.2,0.2-0.7,1-1.1,1.6
		c-0.3,0.4-0.7,0.1-0.7-0.3c0.1-0.8,0.2-1.6,0.3-2.3c0.3-1.4,1.1-2,1.5-2.3c1.1-0.9,2.4-1.5,3.3-1.8c1.3-0.5,3-0.8,4.7-0.7
		c2.3,0.1,3.6,0.7,5,1.4c2.6,1.3,4.2,4.4,4.7,6c0.8,2.1,0.7,4.9-0.2,8.5c-0.9,3.9-3.8,7.5-4.7,8.8c-0.9,1.3-8.5,8.5-9.4,9.4
		c-0.7,0.7-3.9,3.5-6.4,5.7c-0.3,0.3-0.7-0.5-0.5-1.1c0.9-2.3,2.5-4,3.6-5.1c1.5-1.5,3.4-3.3,5.4-5.1
		C169.6,39.3,173.2,35.9,174.7,33.9z"/>
</g>
</svg>
